<svg width="560" height="143" viewBox="0 0 560 143" fill="none" xmlns="http://www.w3.org/2000/svg">
<path d="M176.958 0H52.58C47.8414 0 44 3.8414 44 8.58V132.958C44 137.697 47.8414 141.538 52.58 141.538H176.958C181.697 141.538 185.538 137.697 185.538 132.958V8.58C185.538 3.8414 181.697 0 176.958 0Z" fill="#034FA9"/>
<path d="M118.344 36.2076C116.373 33.8186 113.009 32.3517 109.333 32.3517C105.298 32.3517 102.323 33.637 99.4159 36.7284C98.4152 35.3384 97.0745 34.2107 95.5138 33.4468C93.9533 32.6829 92.2216 32.3068 90.4741 32.3517C87.5289 32.3372 84.6598 33.2586 82.3057 34.9749V33.1211H72.3095V64.6569H82.3057V49.2043C82.3057 44.2731 84.2122 41.4445 87.5329 41.4445C89.9962 41.4445 91.6219 42.7919 91.6219 49.3667V64.6569H101.618V49.1088C101.618 44.2445 103.544 41.4637 106.899 41.4637C107.973 41.4637 110.841 41.4637 110.841 47.4125V64.6998H120.837V46.4235C120.817 42.6249 120.63 38.9981 118.344 36.2076Z" fill="white"/>
<path d="M147.613 20.2211V33.5475C145.313 31.8281 142.538 30.9106 139.694 30.9292C131.248 30.9292 124.879 38.1996 124.879 47.8398C124.879 57.2947 131.456 64.7015 139.855 64.7015C142.64 64.7638 145.367 63.8795 147.613 62.1855V63.9164H157.23V20.2211H147.613ZM147.936 47.7277C147.936 52.2576 145.152 55.4222 141.164 55.4222C137.337 55.4222 134.553 52.2087 134.553 47.786C134.553 43.3633 137.27 40.2036 141.164 40.2036C145.152 40.2133 147.936 43.2901 147.936 47.7177V47.7277Z" fill="white"/>
<path d="M84.4413 72.7904H72.3095V113.23H84.4413V72.7904Z" fill="white"/>
<path d="M111.213 72.7904V84.9054C108.916 83.3404 106.141 82.5059 103.298 82.525C94.8525 82.525 88.4836 89.1345 88.4836 97.8981C88.4836 106.494 95.061 113.227 103.46 113.227C106.243 113.284 108.969 112.48 111.213 110.94V112.513H120.835V72.7904H111.213ZM104.768 104.791C100.937 104.791 98.1578 101.87 98.1578 97.8495C98.1578 93.8289 100.875 90.9563 104.768 90.9563C108.757 90.9563 111.54 93.7711 111.54 97.7963C111.54 101.914 108.757 104.791 104.768 104.791Z" fill="white"/>
<path d="M157.229 101.1H145.097V113.232H157.229V101.1Z" fill="white"/>
<g clip-path="url(#clip0_3_48)">
<path d="M244.454 94.5297H235.511V77.2455C235.511 70.3224 234.162 66.0861 229.188 66.0861C224.75 66.0861 221.536 69.7152 221.536 77.0448V94.5297H212.587V58.8235H221.536V62.9258C222.934 61.3442 224.652 60.0769 226.576 59.2074C228.5 58.338 230.587 57.8861 232.698 57.8816C237.137 57.8816 240.905 59.9662 243.124 64.2693C246.42 60.1049 249.715 57.8816 255.081 57.8816C259.051 57.8816 262.614 59.4977 264.647 62.0508C267 65.0104 267.267 68.9119 267.267 73.6166V94.5297H258.324V74.8263C258.324 68.9787 256.239 66.0861 252.202 66.0861C247.697 66.0861 244.469 69.5813 244.469 76.9109L244.454 94.5297Z" fill="#034FA9"/>
<path d="M309.286 87.6018C305.46 93.0475 300.409 95.4667 292.876 95.4667C281.513 95.4667 274.181 87.1331 274.181 76.6431C274.181 66.8943 281.24 57.8816 292.742 57.8816C304.044 57.8816 311.711 65.9523 311.711 77.2455C311.711 78.0536 311.644 78.46 311.644 79.2633H282.857C283.732 84.5751 287.764 87.5347 292.876 87.5347C296.702 87.5347 299.266 86.459 301.753 84.0396L309.286 87.6018ZM302.695 72.2061C301.485 68.0369 297.654 65.4838 292.876 65.4838C288.438 65.4838 285.009 67.7023 283.258 72.2061H302.695Z" fill="#034FA9"/>
<path d="M345.258 90.7632C342.096 93.8565 338.729 95.4678 334.224 95.4678C325.137 95.4678 317.208 87.6697 317.208 76.7111C317.208 65.5517 324.74 57.8827 334.023 57.8827C338.328 57.8827 342.025 59.4987 345.258 62.7261V45.0356H354.202V94.5259H345.258V90.7632ZM326.223 76.6442C326.223 82.7642 330.259 87.2681 335.841 87.2681C341.422 87.2681 345.66 83.0988 345.66 76.5772C345.66 70.3235 341.489 66.0872 335.841 66.0872C329.953 66.0872 326.232 70.792 326.232 76.6442H326.223Z" fill="#034FA9"/>
<path d="M371.29 58.8244H362.346V94.5257H371.29V58.8244Z" fill="#034FA9"/>
<path d="M405.794 90.7621C402.633 93.8555 399.27 95.4667 394.764 95.4667C385.677 95.4667 377.748 87.6686 377.748 76.71C377.748 65.5506 385.281 57.8816 394.56 57.8816C398.863 57.8816 402.566 59.4977 405.794 62.725V58.8235H414.736V94.5297H405.794V90.7621ZM386.758 76.6431C386.758 82.7631 390.795 87.267 396.376 87.267C401.957 87.267 406.195 83.0977 406.195 76.5761C406.195 70.3224 402.024 66.0861 396.376 66.0861C390.46 66.0861 386.758 70.7909 386.758 76.6431Z" fill="#034FA9"/>
<path d="M422.872 45.0391H431.825V94.5296H422.883L422.872 45.0391Z" fill="#034FA9"/>
<path d="M466.317 90.7621C463.156 93.8555 459.794 95.4667 455.288 95.4667C446.202 95.4667 438.271 87.6686 438.271 76.71C438.271 65.5506 445.805 57.8816 455.088 57.8816C459.392 57.8816 463.09 59.4977 466.317 62.725V58.8235H475.261V94.5297H466.317V90.7621ZM447.283 76.6431C447.283 82.7631 451.318 87.267 456.901 87.267C462.482 87.267 466.72 83.0977 466.72 76.5761C466.72 70.3224 462.553 66.0861 456.901 66.0861C450.985 66.0861 447.283 70.7909 447.283 76.6431Z" fill="#034FA9"/>
<path d="M493.22 62.4572C496.649 59.5885 499.811 57.8816 503.777 57.8816C510.438 57.8816 516.021 62.4572 516.021 70.1215V94.5057H507.071V77.6615C507.071 70.5996 506.468 66.0958 501.022 66.0958C499.798 66.0907 498.595 66.4052 497.531 67.0083C496.469 67.6114 495.58 68.4819 494.957 69.5334C493.14 72.4021 493.211 75.6534 493.211 79.3492V94.5487H484.264V58.8235H493.211L493.22 62.4572Z" fill="#034FA9"/>
<path d="M551.056 90.7632C547.895 93.8565 544.533 95.4678 540.022 95.4678C530.936 95.4678 523.01 87.6697 523.01 76.7111C523.01 65.5517 530.544 57.8827 539.821 57.8827C544.127 57.8827 547.827 59.4987 551.056 62.7261V45.0356H560V94.5259H551.056V90.7632ZM532.022 76.6442C532.022 82.7642 536.057 87.2681 541.64 87.2681C547.221 87.2681 551.459 83.0988 551.459 76.5772C551.459 70.3235 547.288 66.0872 541.64 66.0872C535.718 66.0872 532.022 70.792 532.022 76.6442Z" fill="#034FA9"/>
<path d="M371.342 45.217H362.341V54.2153H371.342V45.217Z" fill="#034FA9"/>
</g>
<path d="M459.876 110H458.796V102.38H456.12V101.432H462.54V102.38H459.876V110ZM465.328 103.448C465.88 103.448 466.352 103.568 466.744 103.808C467.144 104.048 467.448 104.388 467.656 104.828C467.872 105.26 467.98 105.768 467.98 106.352V106.988H463.576C463.592 107.716 463.776 108.272 464.128 108.656C464.488 109.032 464.988 109.22 465.628 109.22C466.036 109.22 466.396 109.184 466.708 109.112C467.028 109.032 467.356 108.92 467.692 108.776V109.7C467.364 109.844 467.04 109.948 466.72 110.012C466.4 110.084 466.02 110.12 465.58 110.12C464.972 110.12 464.432 109.996 463.96 109.748C463.496 109.5 463.132 109.132 462.868 108.644C462.612 108.148 462.484 107.544 462.484 106.832C462.484 106.128 462.6 105.524 462.832 105.02C463.072 104.516 463.404 104.128 463.828 103.856C464.26 103.584 464.76 103.448 465.328 103.448ZM465.316 104.312C464.812 104.312 464.412 104.476 464.116 104.804C463.828 105.124 463.656 105.572 463.6 106.148H466.876C466.876 105.78 466.82 105.46 466.708 105.188C466.596 104.916 466.424 104.704 466.192 104.552C465.968 104.392 465.676 104.312 465.316 104.312ZM472.198 110.12C471.63 110.12 471.122 110.004 470.674 109.772C470.234 109.54 469.886 109.18 469.63 108.692C469.382 108.204 469.258 107.58 469.258 106.82C469.258 106.028 469.39 105.384 469.654 104.888C469.918 104.392 470.274 104.028 470.722 103.796C471.178 103.564 471.694 103.448 472.27 103.448C472.598 103.448 472.914 103.484 473.218 103.556C473.522 103.62 473.77 103.7 473.962 103.796L473.638 104.672C473.446 104.6 473.222 104.532 472.966 104.468C472.71 104.404 472.47 104.372 472.246 104.372C471.814 104.372 471.458 104.464 471.178 104.648C470.898 104.832 470.69 105.104 470.554 105.464C470.418 105.824 470.35 106.272 470.35 106.808C470.35 107.32 470.418 107.756 470.554 108.116C470.69 108.476 470.894 108.748 471.166 108.932C471.438 109.116 471.778 109.208 472.186 109.208C472.538 109.208 472.846 109.172 473.11 109.1C473.382 109.028 473.63 108.94 473.854 108.836V109.772C473.638 109.884 473.398 109.968 473.134 110.024C472.878 110.088 472.566 110.12 472.198 110.12ZM479.823 104.456H477.723V110H476.679V104.456H474.603V103.568H479.823V104.456ZM486.565 106.772C486.565 107.308 486.493 107.784 486.349 108.2C486.213 108.608 486.013 108.956 485.749 109.244C485.493 109.532 485.177 109.752 484.801 109.904C484.433 110.048 484.021 110.12 483.565 110.12C483.141 110.12 482.749 110.048 482.389 109.904C482.029 109.752 481.717 109.532 481.453 109.244C481.189 108.956 480.981 108.608 480.829 108.2C480.685 107.784 480.613 107.308 480.613 106.772C480.613 106.06 480.733 105.46 480.973 104.972C481.213 104.476 481.557 104.1 482.005 103.844C482.453 103.58 482.985 103.448 483.601 103.448C484.185 103.448 484.697 103.58 485.137 103.844C485.585 104.1 485.933 104.476 486.181 104.972C486.437 105.46 486.565 106.06 486.565 106.772ZM481.705 106.772C481.705 107.276 481.769 107.716 481.897 108.092C482.033 108.46 482.241 108.744 482.521 108.944C482.801 109.144 483.157 109.244 483.589 109.244C484.021 109.244 484.377 109.144 484.657 108.944C484.937 108.744 485.141 108.46 485.269 108.092C485.405 107.716 485.473 107.276 485.473 106.772C485.473 106.26 485.405 105.824 485.269 105.464C485.133 105.104 484.925 104.828 484.645 104.636C484.373 104.436 484.017 104.336 483.577 104.336C482.921 104.336 482.445 104.552 482.149 104.984C481.853 105.416 481.705 106.012 481.705 106.772ZM493.411 105.188C493.411 105.588 493.291 105.9 493.051 106.124C492.811 106.348 492.503 106.5 492.127 106.58V106.628C492.527 106.684 492.875 106.828 493.171 107.06C493.467 107.284 493.615 107.636 493.615 108.116C493.615 108.388 493.563 108.64 493.459 108.872C493.363 109.104 493.211 109.304 493.003 109.472C492.795 109.64 492.527 109.772 492.199 109.868C491.871 109.956 491.475 110 491.011 110H488.239V103.568H490.999C491.455 103.568 491.863 103.62 492.223 103.724C492.591 103.82 492.879 103.988 493.087 104.228C493.303 104.46 493.411 104.78 493.411 105.188ZM492.523 108.116C492.523 107.748 492.383 107.484 492.103 107.324C491.823 107.164 491.411 107.084 490.867 107.084H489.295V109.148H490.891C491.419 109.148 491.823 109.072 492.103 108.92C492.383 108.76 492.523 108.492 492.523 108.116ZM492.343 105.32C492.343 105.016 492.231 104.796 492.007 104.66C491.791 104.516 491.435 104.444 490.939 104.444H489.295V106.208H490.747C491.267 106.208 491.663 106.136 491.935 105.992C492.207 105.848 492.343 105.624 492.343 105.32ZM500.745 106.772C500.745 107.308 500.673 107.784 500.529 108.2C500.393 108.608 500.193 108.956 499.929 109.244C499.673 109.532 499.357 109.752 498.981 109.904C498.613 110.048 498.201 110.12 497.745 110.12C497.321 110.12 496.929 110.048 496.569 109.904C496.209 109.752 495.897 109.532 495.633 109.244C495.369 108.956 495.161 108.608 495.009 108.2C494.865 107.784 494.793 107.308 494.793 106.772C494.793 106.06 494.913 105.46 495.153 104.972C495.393 104.476 495.737 104.1 496.185 103.844C496.633 103.58 497.165 103.448 497.781 103.448C498.365 103.448 498.877 103.58 499.317 103.844C499.765 104.1 500.113 104.476 500.361 104.972C500.617 105.46 500.745 106.06 500.745 106.772ZM495.885 106.772C495.885 107.276 495.949 107.716 496.077 108.092C496.213 108.46 496.421 108.744 496.701 108.944C496.981 109.144 497.337 109.244 497.769 109.244C498.201 109.244 498.557 109.144 498.837 108.944C499.117 108.744 499.321 108.46 499.449 108.092C499.585 107.716 499.653 107.276 499.653 106.772C499.653 106.26 499.585 105.824 499.449 105.464C499.313 105.104 499.105 104.828 498.825 104.636C498.553 104.436 498.197 104.336 497.757 104.336C497.101 104.336 496.625 104.552 496.329 104.984C496.033 105.416 495.885 106.012 495.885 106.772ZM504.902 103.448C505.454 103.448 505.926 103.568 506.318 103.808C506.718 104.048 507.022 104.388 507.23 104.828C507.446 105.26 507.554 105.768 507.554 106.352V106.988H503.15C503.166 107.716 503.35 108.272 503.702 108.656C504.062 109.032 504.562 109.22 505.202 109.22C505.61 109.22 505.97 109.184 506.282 109.112C506.602 109.032 506.93 108.92 507.266 108.776V109.7C506.938 109.844 506.614 109.948 506.294 110.012C505.974 110.084 505.594 110.12 505.154 110.12C504.546 110.12 504.006 109.996 503.534 109.748C503.07 109.5 502.706 109.132 502.442 108.644C502.186 108.148 502.058 107.544 502.058 106.832C502.058 106.128 502.174 105.524 502.406 105.02C502.646 104.516 502.978 104.128 503.402 103.856C503.834 103.584 504.334 103.448 504.902 103.448ZM504.89 104.312C504.386 104.312 503.986 104.476 503.69 104.804C503.402 105.124 503.23 105.572 503.174 106.148H506.45C506.45 105.78 506.394 105.46 506.282 105.188C506.17 104.916 505.998 104.704 505.766 104.552C505.542 104.392 505.25 104.312 504.89 104.312ZM514.001 103.448C514.489 103.448 514.913 103.516 515.273 103.652C515.633 103.78 515.913 103.972 516.113 104.228C516.313 104.476 516.413 104.78 516.413 105.14C516.413 105.532 516.305 105.844 516.089 106.076C515.873 106.3 515.577 106.464 515.201 106.568V106.616C515.457 106.688 515.693 106.788 515.909 106.916C516.125 107.044 516.297 107.212 516.425 107.42C516.561 107.628 516.629 107.896 516.629 108.224C516.629 108.576 516.529 108.896 516.329 109.184C516.137 109.472 515.837 109.7 515.429 109.868C515.029 110.036 514.513 110.12 513.881 110.12C513.577 110.12 513.285 110.104 513.005 110.072C512.733 110.04 512.485 109.992 512.261 109.928C512.045 109.864 511.853 109.788 511.685 109.7V108.752C511.957 108.88 512.277 108.996 512.645 109.1C513.021 109.204 513.429 109.256 513.869 109.256C514.189 109.256 514.477 109.22 514.733 109.148C514.997 109.076 515.205 108.964 515.357 108.812C515.509 108.652 515.585 108.436 515.585 108.164C515.585 107.916 515.517 107.716 515.381 107.564C515.245 107.404 515.041 107.284 514.769 107.204C514.505 107.124 514.165 107.084 513.749 107.084H512.885V106.22H513.581C514.133 106.22 514.573 106.148 514.901 106.004C515.237 105.852 515.405 105.596 515.405 105.236C515.405 104.932 515.277 104.704 515.021 104.552C514.773 104.4 514.413 104.324 513.941 104.324C513.589 104.324 513.277 104.36 513.005 104.432C512.741 104.496 512.449 104.596 512.129 104.732L511.757 103.892C512.101 103.74 512.461 103.628 512.837 103.556C513.213 103.484 513.601 103.448 514.001 103.448ZM520.628 103.46C521.412 103.46 521.992 103.632 522.368 103.976C522.744 104.32 522.932 104.868 522.932 105.62V110H522.164L521.96 109.088H521.912C521.728 109.32 521.536 109.516 521.336 109.676C521.144 109.828 520.92 109.94 520.664 110.012C520.416 110.084 520.112 110.12 519.752 110.12C519.368 110.12 519.02 110.052 518.708 109.916C518.404 109.78 518.164 109.572 517.988 109.292C517.812 109.004 517.724 108.644 517.724 108.212C517.724 107.572 517.976 107.08 518.48 106.736C518.984 106.384 519.76 106.192 520.808 106.16L521.9 106.124V105.74C521.9 105.204 521.784 104.832 521.552 104.624C521.32 104.416 520.992 104.312 520.568 104.312C520.232 104.312 519.912 104.364 519.608 104.468C519.304 104.564 519.02 104.676 518.756 104.804L518.432 104.012C518.712 103.86 519.044 103.732 519.428 103.628C519.812 103.516 520.212 103.46 520.628 103.46ZM520.94 106.892C520.14 106.924 519.584 107.052 519.272 107.276C518.968 107.5 518.816 107.816 518.816 108.224C518.816 108.584 518.924 108.848 519.14 109.016C519.364 109.184 519.648 109.268 519.992 109.268C520.536 109.268 520.988 109.12 521.348 108.824C521.708 108.52 521.888 108.056 521.888 107.432V106.856L520.94 106.892ZM529.694 103.568V109.112H530.63V112.232H529.61V110H525.134V112.232H524.126V109.112H524.642C525.01 108.6 525.314 108.044 525.554 107.444C525.802 106.836 525.986 106.204 526.106 105.548C526.234 104.884 526.302 104.224 526.31 103.568H529.694ZM527.246 104.396C527.214 104.94 527.13 105.504 526.994 106.088C526.858 106.664 526.682 107.216 526.466 107.744C526.258 108.272 526.014 108.728 525.734 109.112H528.674V104.396H527.246ZM534.327 103.46C535.111 103.46 535.691 103.632 536.067 103.976C536.443 104.32 536.631 104.868 536.631 105.62V110H535.863L535.659 109.088H535.611C535.427 109.32 535.235 109.516 535.035 109.676C534.843 109.828 534.619 109.94 534.363 110.012C534.115 110.084 533.811 110.12 533.451 110.12C533.067 110.12 532.719 110.052 532.407 109.916C532.103 109.78 531.863 109.572 531.687 109.292C531.511 109.004 531.423 108.644 531.423 108.212C531.423 107.572 531.675 107.08 532.179 106.736C532.683 106.384 533.459 106.192 534.507 106.16L535.599 106.124V105.74C535.599 105.204 535.483 104.832 535.251 104.624C535.019 104.416 534.691 104.312 534.267 104.312C533.931 104.312 533.611 104.364 533.307 104.468C533.003 104.564 532.719 104.676 532.455 104.804L532.131 104.012C532.411 103.86 532.743 103.732 533.127 103.628C533.511 103.516 533.911 103.46 534.327 103.46ZM534.639 106.892C533.839 106.924 533.283 107.052 532.971 107.276C532.667 107.5 532.515 107.816 532.515 108.224C532.515 108.584 532.623 108.848 532.839 109.016C533.063 109.184 533.347 109.268 533.691 109.268C534.235 109.268 534.687 109.12 535.047 108.824C535.407 108.52 535.587 108.056 535.587 107.432V106.856L534.639 106.892ZM539.674 103.568V106.244H543.166V103.568H544.222V110H543.166V107.132H539.674V110H538.618V103.568H539.674ZM547.254 107.492C547.254 107.564 547.25 107.668 547.242 107.804C547.242 107.932 547.238 108.072 547.23 108.224C547.222 108.368 547.214 108.508 547.206 108.644C547.198 108.772 547.19 108.876 547.182 108.956L550.626 103.568H551.922V110H550.938V106.208C550.938 106.08 550.938 105.912 550.938 105.704C550.946 105.496 550.954 105.292 550.962 105.092C550.97 104.884 550.978 104.728 550.986 104.624L547.566 110H546.258V103.568H547.254V107.492ZM556.453 103.448C557.005 103.448 557.477 103.568 557.869 103.808C558.269 104.048 558.573 104.388 558.781 104.828C558.997 105.26 559.105 105.768 559.105 106.352V106.988H554.701C554.717 107.716 554.901 108.272 555.253 108.656C555.613 109.032 556.113 109.22 556.753 109.22C557.161 109.22 557.521 109.184 557.833 109.112C558.153 109.032 558.481 108.92 558.817 108.776V109.7C558.489 109.844 558.165 109.948 557.845 110.012C557.525 110.084 557.145 110.12 556.705 110.12C556.097 110.12 555.557 109.996 555.085 109.748C554.621 109.5 554.257 109.132 553.993 108.644C553.737 108.148 553.609 107.544 553.609 106.832C553.609 106.128 553.725 105.524 553.957 105.02C554.197 104.516 554.529 104.128 554.953 103.856C555.385 103.584 555.885 103.448 556.453 103.448ZM556.441 104.312C555.937 104.312 555.537 104.476 555.241 104.804C554.953 105.124 554.781 105.572 554.725 106.148H558.001C558.001 105.78 557.945 105.46 557.833 105.188C557.721 104.916 557.549 104.704 557.317 104.552C557.093 104.392 556.801 104.312 556.441 104.312Z" fill="#1F2948"/>
<defs>
<clipPath id="clip0_3_48">
<rect width="348" height="51" fill="white" transform="translate(212 45)"/>
</clipPath>
</defs>
</svg>
