<svg width="384" height="72" viewBox="0 0 384 72" fill="none" xmlns="http://www.w3.org/2000/svg">
<g clip-path="url(#clip0_5_422)">
<path d="M46.4889 11H3C1.34315 11 0 12.3431 0 14V57.4889C0 59.1458 1.34315 60.4889 3 60.4889H46.4889C48.1458 60.4889 49.4889 59.1458 49.4889 57.4889V14C49.4889 12.3431 48.1458 11 46.4889 11Z" fill="#034FA9"/>
<path d="M25.9944 23.66C25.3054 22.8247 24.1289 22.3118 22.8438 22.3118C21.433 22.3118 20.3925 22.7612 19.3762 23.8421C19.0263 23.3561 18.5575 22.9618 18.0118 22.6947C17.4662 22.4276 16.8607 22.2961 16.2497 22.3118C15.2199 22.3067 14.2167 22.6289 13.3936 23.229V22.5808H9.89844V33.6073H13.3936V28.2043C13.3936 26.4801 14.0602 25.4911 15.2213 25.4911C16.0826 25.4911 16.651 25.9622 16.651 28.2611V33.6073H20.1462V28.1709C20.1462 26.4701 20.8197 25.4978 21.9928 25.4978C22.3683 25.4978 23.3709 25.4978 23.3709 27.5778V33.6223H26.8661V27.232C26.8592 25.9038 26.7937 24.6357 25.9944 23.66Z" fill="white"/>
<path d="M36.2284 18.0703V22.7299C35.424 22.1287 34.4537 21.8079 33.4593 21.8144C30.5062 21.8144 28.2793 24.3565 28.2793 27.7272C28.2793 31.0331 30.5791 33.6229 33.5157 33.6229C34.4894 33.6447 35.443 33.3355 36.2284 32.7432V33.3484H39.591V18.0703H36.2284ZM36.3411 27.688C36.3411 29.2719 35.3678 30.3784 33.9733 30.3784C32.6352 30.3784 31.6619 29.2548 31.6619 27.7084C31.6619 26.162 32.612 25.0572 33.9733 25.0572C35.3678 25.0606 36.3411 26.1364 36.3411 27.6845V27.688Z" fill="white"/>
<path d="M14.1403 36.4512H9.89844V50.5909H14.1403V36.4512Z" fill="white"/>
<path d="M23.5011 36.4512V40.6872C22.6978 40.14 21.7277 39.8482 20.7337 39.8549C17.7806 39.8549 15.5537 42.1659 15.5537 45.2301C15.5537 48.2355 17.8535 50.5899 20.7901 50.5899C21.7633 50.6097 22.7164 50.3286 23.5011 49.7901V50.3403H26.8655V36.4512H23.5011ZM21.2477 47.6403C19.908 47.6403 18.9363 46.6189 18.9363 45.2131C18.9363 43.8073 19.8864 42.8029 21.2477 42.8029C22.6422 42.8029 23.6155 43.7871 23.6155 45.1945C23.6155 46.6344 22.6422 47.6403 21.2477 47.6403Z" fill="white"/>
<path d="M39.5905 46.3496H35.3486V50.5915H39.5905V46.3496Z" fill="white"/>
</g>
<g clip-path="url(#clip1_5_422)">
<path d="M70.8282 44.337H66.7419V36.5421C66.7419 33.4199 66.1256 31.5095 63.8531 31.5095C61.8252 31.5095 60.3568 33.1461 60.3568 36.4516V44.337H56.2683V28.2342H60.3568V30.0842C60.9957 29.371 61.7806 28.7994 62.6598 28.4073C63.5389 28.0152 64.4922 27.8114 65.457 27.8094C67.4848 27.8094 69.2067 28.7495 70.2207 30.6901C71.7263 28.812 73.2319 27.8094 75.6837 27.8094C77.4974 27.8094 79.1253 28.5382 80.0541 29.6896C81.1292 31.0243 81.2515 32.7838 81.2515 34.9056V44.337H77.1652V35.4511C77.1652 32.814 76.2125 31.5095 74.3682 31.5095C72.3097 31.5095 70.8348 33.0857 70.8348 36.3912L70.8282 44.337Z" fill="#034FA9"/>
<path d="M100.449 41.2126C98.7014 43.6685 96.3938 44.7595 92.9521 44.7595C87.7601 44.7595 84.4101 41.0012 84.4101 36.2705C84.4101 31.8739 87.6355 27.8094 92.8909 27.8094C98.0545 27.8094 101.557 31.4491 101.557 36.5421C101.557 36.9066 101.527 37.0898 101.527 37.4521H88.3742C88.7741 39.8476 90.6161 41.1824 92.9521 41.1824C94.7003 41.1824 95.8715 40.6972 97.0079 39.6061L100.449 41.2126ZM97.4383 34.2695C96.8855 32.3892 95.1351 31.2378 92.9521 31.2378C90.9242 31.2378 89.3575 32.2383 88.5577 34.2695H97.4383Z" fill="#034FA9"/>
<path d="M116.885 42.6383C115.441 44.0334 113.902 44.76 111.844 44.76C107.692 44.76 104.069 41.2432 104.069 36.3011C104.069 31.2684 107.511 27.8099 111.752 27.8099C113.719 27.8099 115.408 28.5387 116.885 29.9941V22.0161H120.971V44.3352H116.885V42.6383ZM108.188 36.2709C108.188 39.0309 110.032 41.0621 112.582 41.0621C115.133 41.0621 117.069 39.1818 117.069 36.2407C117.069 33.4204 115.163 31.5099 112.582 31.5099C109.892 31.5099 108.192 33.6317 108.192 36.2709H108.188Z" fill="#034FA9"/>
<path d="M128.779 28.2345H124.693V44.3351H128.779V28.2345Z" fill="#034FA9"/>
<path d="M144.544 42.6378C143.1 44.0329 141.563 44.7595 139.504 44.7595C135.353 44.7595 131.73 41.2427 131.73 36.3006C131.73 31.268 135.171 27.8094 139.411 27.8094C141.377 27.8094 143.069 28.5382 144.544 29.9936V28.2342H148.63V44.337H144.544V42.6378ZM135.846 36.2705C135.846 39.0305 137.691 41.0616 140.241 41.0616C142.791 41.0616 144.727 39.1814 144.727 36.2402C144.727 33.4199 142.821 31.5095 140.241 31.5095C137.538 31.5095 135.846 33.6312 135.846 36.2705Z" fill="#034FA9"/>
<path d="M152.346 22.0176H156.437V44.3369H152.351L152.346 22.0176Z" fill="#034FA9"/>
<path d="M172.197 42.6378C170.752 44.0329 169.216 44.7595 167.158 44.7595C163.006 44.7595 159.382 41.2427 159.382 36.3006C159.382 31.268 162.825 27.8094 167.066 27.8094C169.032 27.8094 170.722 28.5382 172.197 29.9936V28.2342H176.283V44.337H172.197V42.6378ZM163.5 36.2705C163.5 39.0305 165.344 41.0616 167.894 41.0616C170.444 41.0616 172.381 39.1814 172.381 36.2402C172.381 33.4199 170.477 31.5095 167.894 31.5095C165.191 31.5095 163.5 33.6312 163.5 36.2705Z" fill="#034FA9"/>
<path d="M184.489 29.8729C186.055 28.5791 187.5 27.8094 189.312 27.8094C192.355 27.8094 194.906 29.8729 194.906 33.3293V44.3261H190.817V36.7297C190.817 33.545 190.541 31.5138 188.053 31.5138C187.494 31.5115 186.944 31.6534 186.458 31.9253C185.973 32.1973 185.567 32.5899 185.282 33.0641C184.452 34.3578 184.484 35.8241 184.484 37.4909V44.3455H180.396V28.2342H184.484L184.489 29.8729Z" fill="#034FA9"/>
<path d="M210.913 42.6383C209.469 44.0334 207.933 44.76 205.872 44.76C201.721 44.76 198.099 41.2432 198.099 36.3011C198.099 31.2684 201.542 27.8099 205.78 27.8099C207.748 27.8099 209.438 28.5387 210.913 29.9941V22.0161H215V44.3352H210.913V42.6383ZM202.217 36.2709C202.217 39.0309 204.061 41.0621 206.611 41.0621C209.161 41.0621 211.097 39.1818 211.097 36.2407C211.097 33.4204 209.192 31.5099 206.611 31.5099C203.906 31.5099 202.217 33.6317 202.217 36.2709Z" fill="#034FA9"/>
<path d="M128.803 22.0978H124.69V26.1559H128.803V22.0978Z" fill="#034FA9"/>
</g>
<path d="M116.876 57H115.796V49.38H113.12V48.432H119.54V49.38H116.876V57ZM122.328 50.448C122.88 50.448 123.352 50.568 123.744 50.808C124.144 51.048 124.448 51.388 124.656 51.828C124.872 52.26 124.98 52.768 124.98 53.352V53.988H120.576C120.592 54.716 120.776 55.272 121.128 55.656C121.488 56.032 121.988 56.22 122.628 56.22C123.036 56.22 123.396 56.184 123.708 56.112C124.028 56.032 124.356 55.92 124.692 55.776V56.7C124.364 56.844 124.04 56.948 123.72 57.012C123.4 57.084 123.02 57.12 122.58 57.12C121.972 57.12 121.432 56.996 120.96 56.748C120.496 56.5 120.132 56.132 119.868 55.644C119.612 55.148 119.484 54.544 119.484 53.832C119.484 53.128 119.6 52.524 119.832 52.02C120.072 51.516 120.404 51.128 120.828 50.856C121.26 50.584 121.76 50.448 122.328 50.448ZM122.316 51.312C121.812 51.312 121.412 51.476 121.116 51.804C120.828 52.124 120.656 52.572 120.6 53.148H123.876C123.876 52.78 123.82 52.46 123.708 52.188C123.596 51.916 123.424 51.704 123.192 51.552C122.968 51.392 122.676 51.312 122.316 51.312ZM129.198 57.12C128.63 57.12 128.122 57.004 127.674 56.772C127.234 56.54 126.886 56.18 126.63 55.692C126.382 55.204 126.258 54.58 126.258 53.82C126.258 53.028 126.39 52.384 126.654 51.888C126.918 51.392 127.274 51.028 127.722 50.796C128.178 50.564 128.694 50.448 129.27 50.448C129.598 50.448 129.914 50.484 130.218 50.556C130.522 50.62 130.77 50.7 130.962 50.796L130.638 51.672C130.446 51.6 130.222 51.532 129.966 51.468C129.71 51.404 129.47 51.372 129.246 51.372C128.814 51.372 128.458 51.464 128.178 51.648C127.898 51.832 127.69 52.104 127.554 52.464C127.418 52.824 127.35 53.272 127.35 53.808C127.35 54.32 127.418 54.756 127.554 55.116C127.69 55.476 127.894 55.748 128.166 55.932C128.438 56.116 128.778 56.208 129.186 56.208C129.538 56.208 129.846 56.172 130.11 56.1C130.382 56.028 130.63 55.94 130.854 55.836V56.772C130.638 56.884 130.398 56.968 130.134 57.024C129.878 57.088 129.566 57.12 129.198 57.12ZM136.823 51.456H134.723V57H133.679V51.456H131.603V50.568H136.823V51.456ZM143.565 53.772C143.565 54.308 143.493 54.784 143.349 55.2C143.213 55.608 143.013 55.956 142.749 56.244C142.493 56.532 142.177 56.752 141.801 56.904C141.433 57.048 141.021 57.12 140.565 57.12C140.141 57.12 139.749 57.048 139.389 56.904C139.029 56.752 138.717 56.532 138.453 56.244C138.189 55.956 137.981 55.608 137.829 55.2C137.685 54.784 137.613 54.308 137.613 53.772C137.613 53.06 137.733 52.46 137.973 51.972C138.213 51.476 138.557 51.1 139.005 50.844C139.453 50.58 139.985 50.448 140.601 50.448C141.185 50.448 141.697 50.58 142.137 50.844C142.585 51.1 142.933 51.476 143.181 51.972C143.437 52.46 143.565 53.06 143.565 53.772ZM138.705 53.772C138.705 54.276 138.769 54.716 138.897 55.092C139.033 55.46 139.241 55.744 139.521 55.944C139.801 56.144 140.157 56.244 140.589 56.244C141.021 56.244 141.377 56.144 141.657 55.944C141.937 55.744 142.141 55.46 142.269 55.092C142.405 54.716 142.473 54.276 142.473 53.772C142.473 53.26 142.405 52.824 142.269 52.464C142.133 52.104 141.925 51.828 141.645 51.636C141.373 51.436 141.017 51.336 140.577 51.336C139.921 51.336 139.445 51.552 139.149 51.984C138.853 52.416 138.705 53.012 138.705 53.772ZM150.411 52.188C150.411 52.588 150.291 52.9 150.051 53.124C149.811 53.348 149.503 53.5 149.127 53.58V53.628C149.527 53.684 149.875 53.828 150.171 54.06C150.467 54.284 150.615 54.636 150.615 55.116C150.615 55.388 150.563 55.64 150.459 55.872C150.363 56.104 150.211 56.304 150.003 56.472C149.795 56.64 149.527 56.772 149.199 56.868C148.871 56.956 148.475 57 148.011 57H145.239V50.568H147.999C148.455 50.568 148.863 50.62 149.223 50.724C149.591 50.82 149.879 50.988 150.087 51.228C150.303 51.46 150.411 51.78 150.411 52.188ZM149.523 55.116C149.523 54.748 149.383 54.484 149.103 54.324C148.823 54.164 148.411 54.084 147.867 54.084H146.295V56.148H147.891C148.419 56.148 148.823 56.072 149.103 55.92C149.383 55.76 149.523 55.492 149.523 55.116ZM149.343 52.32C149.343 52.016 149.231 51.796 149.007 51.66C148.791 51.516 148.435 51.444 147.939 51.444H146.295V53.208H147.747C148.267 53.208 148.663 53.136 148.935 52.992C149.207 52.848 149.343 52.624 149.343 52.32ZM157.745 53.772C157.745 54.308 157.673 54.784 157.529 55.2C157.393 55.608 157.193 55.956 156.929 56.244C156.673 56.532 156.357 56.752 155.981 56.904C155.613 57.048 155.201 57.12 154.745 57.12C154.321 57.12 153.929 57.048 153.569 56.904C153.209 56.752 152.897 56.532 152.633 56.244C152.369 55.956 152.161 55.608 152.009 55.2C151.865 54.784 151.793 54.308 151.793 53.772C151.793 53.06 151.913 52.46 152.153 51.972C152.393 51.476 152.737 51.1 153.185 50.844C153.633 50.58 154.165 50.448 154.781 50.448C155.365 50.448 155.877 50.58 156.317 50.844C156.765 51.1 157.113 51.476 157.361 51.972C157.617 52.46 157.745 53.06 157.745 53.772ZM152.885 53.772C152.885 54.276 152.949 54.716 153.077 55.092C153.213 55.46 153.421 55.744 153.701 55.944C153.981 56.144 154.337 56.244 154.769 56.244C155.201 56.244 155.557 56.144 155.837 55.944C156.117 55.744 156.321 55.46 156.449 55.092C156.585 54.716 156.653 54.276 156.653 53.772C156.653 53.26 156.585 52.824 156.449 52.464C156.313 52.104 156.105 51.828 155.825 51.636C155.553 51.436 155.197 51.336 154.757 51.336C154.101 51.336 153.625 51.552 153.329 51.984C153.033 52.416 152.885 53.012 152.885 53.772ZM161.902 50.448C162.454 50.448 162.926 50.568 163.318 50.808C163.718 51.048 164.022 51.388 164.23 51.828C164.446 52.26 164.554 52.768 164.554 53.352V53.988H160.15C160.166 54.716 160.35 55.272 160.702 55.656C161.062 56.032 161.562 56.22 162.202 56.22C162.61 56.22 162.97 56.184 163.282 56.112C163.602 56.032 163.93 55.92 164.266 55.776V56.7C163.938 56.844 163.614 56.948 163.294 57.012C162.974 57.084 162.594 57.12 162.154 57.12C161.546 57.12 161.006 56.996 160.534 56.748C160.07 56.5 159.706 56.132 159.442 55.644C159.186 55.148 159.058 54.544 159.058 53.832C159.058 53.128 159.174 52.524 159.406 52.02C159.646 51.516 159.978 51.128 160.402 50.856C160.834 50.584 161.334 50.448 161.902 50.448ZM161.89 51.312C161.386 51.312 160.986 51.476 160.69 51.804C160.402 52.124 160.23 52.572 160.174 53.148H163.45C163.45 52.78 163.394 52.46 163.282 52.188C163.17 51.916 162.998 51.704 162.766 51.552C162.542 51.392 162.25 51.312 161.89 51.312ZM171.001 50.448C171.489 50.448 171.913 50.516 172.273 50.652C172.633 50.78 172.913 50.972 173.113 51.228C173.313 51.476 173.413 51.78 173.413 52.14C173.413 52.532 173.305 52.844 173.089 53.076C172.873 53.3 172.577 53.464 172.201 53.568V53.616C172.457 53.688 172.693 53.788 172.909 53.916C173.125 54.044 173.297 54.212 173.425 54.42C173.561 54.628 173.629 54.896 173.629 55.224C173.629 55.576 173.529 55.896 173.329 56.184C173.137 56.472 172.837 56.7 172.429 56.868C172.029 57.036 171.513 57.12 170.881 57.12C170.577 57.12 170.285 57.104 170.005 57.072C169.733 57.04 169.485 56.992 169.261 56.928C169.045 56.864 168.853 56.788 168.685 56.7V55.752C168.957 55.88 169.277 55.996 169.645 56.1C170.021 56.204 170.429 56.256 170.869 56.256C171.189 56.256 171.477 56.22 171.733 56.148C171.997 56.076 172.205 55.964 172.357 55.812C172.509 55.652 172.585 55.436 172.585 55.164C172.585 54.916 172.517 54.716 172.381 54.564C172.245 54.404 172.041 54.284 171.769 54.204C171.505 54.124 171.165 54.084 170.749 54.084H169.885V53.22H170.581C171.133 53.22 171.573 53.148 171.901 53.004C172.237 52.852 172.405 52.596 172.405 52.236C172.405 51.932 172.277 51.704 172.021 51.552C171.773 51.4 171.413 51.324 170.941 51.324C170.589 51.324 170.277 51.36 170.005 51.432C169.741 51.496 169.449 51.596 169.129 51.732L168.757 50.892C169.101 50.74 169.461 50.628 169.837 50.556C170.213 50.484 170.601 50.448 171.001 50.448ZM177.628 50.46C178.412 50.46 178.992 50.632 179.368 50.976C179.744 51.32 179.932 51.868 179.932 52.62V57H179.164L178.96 56.088H178.912C178.728 56.32 178.536 56.516 178.336 56.676C178.144 56.828 177.92 56.94 177.664 57.012C177.416 57.084 177.112 57.12 176.752 57.12C176.368 57.12 176.02 57.052 175.708 56.916C175.404 56.78 175.164 56.572 174.988 56.292C174.812 56.004 174.724 55.644 174.724 55.212C174.724 54.572 174.976 54.08 175.48 53.736C175.984 53.384 176.76 53.192 177.808 53.16L178.9 53.124V52.74C178.9 52.204 178.784 51.832 178.552 51.624C178.32 51.416 177.992 51.312 177.568 51.312C177.232 51.312 176.912 51.364 176.608 51.468C176.304 51.564 176.02 51.676 175.756 51.804L175.432 51.012C175.712 50.86 176.044 50.732 176.428 50.628C176.812 50.516 177.212 50.46 177.628 50.46ZM177.94 53.892C177.14 53.924 176.584 54.052 176.272 54.276C175.968 54.5 175.816 54.816 175.816 55.224C175.816 55.584 175.924 55.848 176.14 56.016C176.364 56.184 176.648 56.268 176.992 56.268C177.536 56.268 177.988 56.12 178.348 55.824C178.708 55.52 178.888 55.056 178.888 54.432V53.856L177.94 53.892ZM186.694 50.568V56.112H187.63V59.232H186.61V57H182.134V59.232H181.126V56.112H181.642C182.01 55.6 182.314 55.044 182.554 54.444C182.802 53.836 182.986 53.204 183.106 52.548C183.234 51.884 183.302 51.224 183.31 50.568H186.694ZM184.246 51.396C184.214 51.94 184.13 52.504 183.994 53.088C183.858 53.664 183.682 54.216 183.466 54.744C183.258 55.272 183.014 55.728 182.734 56.112H185.674V51.396H184.246ZM191.327 50.46C192.111 50.46 192.691 50.632 193.067 50.976C193.443 51.32 193.631 51.868 193.631 52.62V57H192.863L192.659 56.088H192.611C192.427 56.32 192.235 56.516 192.035 56.676C191.843 56.828 191.619 56.94 191.363 57.012C191.115 57.084 190.811 57.12 190.451 57.12C190.067 57.12 189.719 57.052 189.407 56.916C189.103 56.78 188.863 56.572 188.687 56.292C188.511 56.004 188.423 55.644 188.423 55.212C188.423 54.572 188.675 54.08 189.179 53.736C189.683 53.384 190.459 53.192 191.507 53.16L192.599 53.124V52.74C192.599 52.204 192.483 51.832 192.251 51.624C192.019 51.416 191.691 51.312 191.267 51.312C190.931 51.312 190.611 51.364 190.307 51.468C190.003 51.564 189.719 51.676 189.455 51.804L189.131 51.012C189.411 50.86 189.743 50.732 190.127 50.628C190.511 50.516 190.911 50.46 191.327 50.46ZM191.639 53.892C190.839 53.924 190.283 54.052 189.971 54.276C189.667 54.5 189.515 54.816 189.515 55.224C189.515 55.584 189.623 55.848 189.839 56.016C190.063 56.184 190.347 56.268 190.691 56.268C191.235 56.268 191.687 56.12 192.047 55.824C192.407 55.52 192.587 55.056 192.587 54.432V53.856L191.639 53.892ZM196.674 50.568V53.244H200.166V50.568H201.222V57H200.166V54.132H196.674V57H195.618V50.568H196.674ZM204.254 54.492C204.254 54.564 204.25 54.668 204.242 54.804C204.242 54.932 204.238 55.072 204.23 55.224C204.222 55.368 204.214 55.508 204.206 55.644C204.198 55.772 204.19 55.876 204.182 55.956L207.626 50.568H208.922V57H207.938V53.208C207.938 53.08 207.938 52.912 207.938 52.704C207.946 52.496 207.954 52.292 207.962 52.092C207.97 51.884 207.978 51.728 207.986 51.624L204.566 57H203.258V50.568H204.254V54.492ZM213.453 50.448C214.005 50.448 214.477 50.568 214.869 50.808C215.269 51.048 215.573 51.388 215.781 51.828C215.997 52.26 216.105 52.768 216.105 53.352V53.988H211.701C211.717 54.716 211.901 55.272 212.253 55.656C212.613 56.032 213.113 56.22 213.753 56.22C214.161 56.22 214.521 56.184 214.833 56.112C215.153 56.032 215.481 55.92 215.817 55.776V56.7C215.489 56.844 215.165 56.948 214.845 57.012C214.525 57.084 214.145 57.12 213.705 57.12C213.097 57.12 212.557 56.996 212.085 56.748C211.621 56.5 211.257 56.132 210.993 55.644C210.737 55.148 210.609 54.544 210.609 53.832C210.609 53.128 210.725 52.524 210.957 52.02C211.197 51.516 211.529 51.128 211.953 50.856C212.385 50.584 212.885 50.448 213.453 50.448ZM213.441 51.312C212.937 51.312 212.537 51.476 212.241 51.804C211.953 52.124 211.781 52.572 211.725 53.148H215.001C215.001 52.78 214.945 52.46 214.833 52.188C214.721 51.916 214.549 51.704 214.317 51.552C214.093 51.392 213.801 51.312 213.441 51.312Z" fill="#1F2948"/>
<defs>
<clipPath id="clip0_5_422">
<rect width="50" height="50" fill="white" transform="translate(0 11)"/>
</clipPath>
<clipPath id="clip1_5_422">
<rect width="159" height="23" fill="white" transform="translate(56 22)"/>
</clipPath>
</defs>
</svg>
